<?xml version="1.0" encoding="utf-8"?>
<!-- Generator: Adobe Illustrator 24.1.1, SVG Export Plug-In . SVG Version: 6.00 Build 0)  -->
<svg version="1.1" id="Capa_1" xmlns="http://www.w3.org/2000/svg" xmlns:xlink="http://www.w3.org/1999/xlink" x="0px" y="0px"
	 viewBox="0 0 300 80" style="enable-background:new 0 0 300 80;" xml:space="preserve">
<style type="text/css">
	.st0{display:none;}
	.st1{display:inline;}
	.st2{fill:#646363;}
	.st3{fill:#E52329;}
	.st4{fill:#E49B00;}
	.st5{fill:#FAEBCC;}
	.st6{display:inline;fill:#E52329;}
	.st7{opacity:0.7;enable-background:new    ;}
</style>
<g id="Capa_1_1_" class="st0">
	<g class="st1">
		<g id="XMLID_6923_">
			<g id="XMLID_167_">
				<path id="XMLID_184_" class="st2" d="M-272.7,831v-2.4c-1,1.4-2.8,2.7-5.6,2.7c-2.7,0-5.7-1.5-5.7-4.5v-0.1c0-3,2.6-4.6,6.4-4.6
					c2,0,3.4,0.3,4.8,0.6v-0.6c0-2.9-1.8-4.4-4.8-4.4c-1.8,0-3.2,0.5-4.6,1.1l-0.5-1.2c1.6-0.7,3.2-1.2,5.2-1.2
					c3.8,0,6.1,1.9,6.1,5.6v8.9L-272.7,831L-272.7,831L-272.7,831z M-272.6,824c-1.3-0.3-2.9-0.6-5-0.6c-3.1,0-4.8,1.3-4.8,3.3v0.1
					c0,2.1,2,3.3,4.2,3.3c3,0,5.5-1.8,5.5-4.4L-272.6,824L-272.6,824z"/>
				<path id="XMLID_182_" class="st2" d="M-261.2,831.1h-1.2l-6.6-14.4h1.6l5.5,12.7l5.6-12.7h1.6L-261.2,831.1z"/>
				<path id="XMLID_179_" class="st2" d="M-246.2,830c2.3,0,3.8-1,5-2.2l1,0.8c-1.5,1.6-3.2,2.7-6.1,2.7c-3.8,0-7.2-3-7.2-7.4v-0.1
					c0-4.1,3-7.4,6.9-7.4c4.1,0,6.7,3.2,6.7,7.5v0.1c0,0.2,0,0.3,0,0.5h-12C-251.7,828-249.1,830-246.2,830z M-241.3,823.2
					c-0.2-2.9-1.9-5.5-5.2-5.5c-2.9,0-5.1,2.4-5.4,5.5H-241.3z"/>
				<path id="XMLID_177_" class="st2" d="M-225.2,831v-8.5c0-2.9-1.7-4.9-4.6-4.9s-5.1,2.1-5.1,5.1v8.3h-1.4v-14.3h1.4v2.7
					c1-1.7,2.6-3,5.3-3c3.7,0,5.9,2.5,5.9,5.9v8.7C-223.7,831-225.2,831-225.2,831z"/>
				<path id="XMLID_175_" class="st2" d="M-214.6,831.2c-2.3,0-4.1-1.2-4.1-3.9v-9.4h-2.2v-1.3h2.1V812h1.4v4.6h5.1v1.3h-5.1v9.2
					c0,2,1.2,2.8,2.9,2.8c0.7,0,1.3-0.1,2.2-0.5v1.3C-213,831.1-213.7,831.2-214.6,831.2z"/>
				<path id="XMLID_173_" class="st2" d="M-197.9,831v-2.7c-1,1.7-2.6,3-5.3,3c-3.7,0-5.9-2.5-5.9-5.9v-8.7h1.4v8.5
					c0,2.9,1.7,4.9,4.6,4.9s5.1-2.1,5.1-5.1v-8.3h1.4V831C-196.6,831-197.9,831-197.9,831z"/>
				<path id="XMLID_171_" class="st2" d="M-184.1,818c-3.4,0-6.3,2.5-6.3,7.1v5.9h-1.5v-14.3h1.4v4.1c1.1-2.5,3.6-4.4,6.5-4.3
					L-184.1,818C-184,818-184.1,818-184.1,818z"/>
				<path id="XMLID_168_" class="st2" d="M-171.8,831v-2.4c-1,1.4-2.8,2.7-5.6,2.7c-2.7,0-5.7-1.5-5.7-4.5v-0.1c0-3,2.6-4.6,6.4-4.6
					c2,0,3.4,0.3,4.8,0.6v-0.6c0-2.9-1.8-4.4-4.8-4.4c-1.8,0-3.2,0.5-4.6,1.1l-0.5-1.2c1.6-0.7,3.2-1.2,5.2-1.2
					c3.8,0,6.1,1.9,6.1,5.6v8.9L-171.8,831L-171.8,831z M-171.8,824c-1.2-0.3-2.9-0.6-5-0.6c-3.1,0-4.8,1.3-4.8,3.3v0.1
					c0,2.1,2,3.3,4.2,3.3c3,0,5.5-1.8,5.5-4.4L-171.8,824L-171.8,824L-171.8,824z"/>
			</g>
		</g>
		<g id="XMLID_6905_">
			<g id="XMLID_135_">
				<path id="XMLID_151_" class="st2" d="M-73.6,831.3c-2.1,0-4.4-0.8-6-2.1l0.8-1.1c1.6,1.2,3.4,1.9,5.2,1.9c2,0,3.5-1.1,3.5-2.7
					v-0.1c0-1.7-1.8-2.3-3.9-2.9c-2.4-0.7-5-1.4-5-3.9l0,0c0-2.3,2-3.9,4.8-3.9c1.7,0,3.7,0.6,5.2,1.6l-0.7,1.1
					c-1.3-0.9-3-1.4-4.5-1.4c-2,0-3.3,1.1-3.3,2.5v0.1c0,1.6,2,2.2,4.1,2.8c2.4,0.6,4.8,1.5,4.8,4v0.1
					C-68.5,829.7-70.7,831.3-73.6,831.3z"/>
				<path id="XMLID_148_" class="st2" d="M-58.5,830.1c2.3,0,3.8-1,5-2.2l1,0.8c-1.5,1.6-3.2,2.7-6.1,2.7c-3.8,0-7.2-3-7.2-7.4v-0.1
					c0-4.1,3-7.4,6.9-7.4c4.1,0,6.7,3.2,6.7,7.5v0.1c0,0.2,0,0.3,0,0.5h-12.1C-64,828-61.4,830.1-58.5,830.1z M-53.6,823.2
					c-0.2-2.9-1.9-5.5-5.2-5.5c-2.9,0-5.1,2.4-5.4,5.5H-53.6z"/>
				<path id="XMLID_146_" class="st2" d="M-41,818.1c-3.4,0-6.3,2.5-6.3,7.1v5.9h-1.4v-14.3h1.4v4.1c1.1-2.5,3.6-4.4,6.5-4.3v1.5
					H-41L-41,818.1z"/>
				<path id="XMLID_144_" class="st2" d="M-30.2,818.1c-3.4,0-6.3,2.5-6.3,7.1v5.9h-1.4v-14.3h1.4v4.1c1.1-2.5,3.6-4.4,6.5-4.3v1.5
					H-30.2L-30.2,818.1z"/>
				<path id="XMLID_141_" class="st2" d="M-17.9,831.1v-2.4c-1,1.4-2.8,2.7-5.6,2.7c-2.7,0-5.7-1.5-5.7-4.5v-0.1
					c0-3,2.6-4.6,6.4-4.6c2,0,3.4,0.3,4.8,0.6v-0.6c0-2.9-1.8-4.4-4.8-4.4c-1.8,0-3.2,0.5-4.6,1.1l-0.5-1.2c1.6-0.7,3.2-1.2,5.2-1.2
					c3.8,0,6.1,1.9,6.1,5.6v8.9L-17.9,831.1L-17.9,831.1z M-17.9,824.1c-1.2-0.3-2.9-0.6-5-0.6c-3.1,0-4.8,1.3-4.8,3.3v0.1
					c0,2.1,2,3.3,4.2,3.3c3,0,5.5-1.8,5.5-4.4L-17.9,824.1L-17.9,824.1z"/>
				<path id="XMLID_139_" class="st2" d="M-1.1,831.1v-8.5c0-2.9-1.7-4.9-4.6-4.9s-5.1,2.1-5.1,5.1v8.3h-1.4v-14.3h1.4v2.6
					c1-1.7,2.6-3,5.3-3c3.7,0,5.9,2.5,5.9,5.9v8.7L-1.1,831.1L-1.1,831.1L-1.1,831.1z"/>
				<path id="XMLID_136_" class="st2" d="M14.7,831.1v-2.4c-1,1.4-2.8,2.7-5.6,2.7c-2.7,0-5.7-1.5-5.7-4.5v-0.1c0-3,2.6-4.6,6.4-4.6
					c2,0,3.4,0.3,4.8,0.6v-0.6c0-2.9-1.8-4.4-4.8-4.4c-1.8,0-3.2,0.5-4.6,1.1l-0.5-1.2c1.6-0.7,3.2-1.2,5.2-1.2
					c3.8,0,6.1,1.9,6.1,5.6v8.9L14.7,831.1L14.7,831.1L14.7,831.1z M14.8,824.1c-1.2-0.3-2.9-0.6-5-0.6c-3.1,0-4.8,1.3-4.8,3.3v0.1
					c0,2.1,2,3.3,4.2,3.3c3,0,5.5-1.8,5.5-4.4L14.8,824.1L14.8,824.1z"/>
			</g>
		</g>
		<path id="XMLID_3713_" class="st3" d="M-96,810.4c-1-0.8-2.1-1.7-3.1-2.5c-2.5-2-5.2-3.5-8.6-3.6c-0.3,0-0.7-0.2-0.9-0.4
			c-1.1-1-2.1-2-3.2-3c-1.4-1.2-2.9-1.7-4.8-1.4c-2.4,0.3-4,1.6-5,3.7c-1.9-1.1-3.7-1.1-5.6,0c-0.1-0.2-0.2-0.4-0.3-0.6
			c-2-3.5-6.7-4.3-9.7-1.5c-1,0.9-1.9,1.8-2.9,2.6c-0.4,0.3-1,0.6-1.5,0.6c-2.2,0.1-4.3,0.8-6.1,2.1c-1.8,1.4-3.7,2.7-5.4,4.1
			c-4.6,2.8-7.6,7.8-7.6,13.4c0,8.8,7.3,15.9,16.3,15.9c8.1,0,14.7-5.7,16-13.2c1.2,0.6,2.5,0.9,4.1,0.9c1.5,0,2.8-0.4,4-1
			c1.3,7.5,8,13.3,16,13.3c9,0,16.3-7.1,16.3-15.9C-88.1,818.2-91.3,813.2-96,810.4z"/>
		<ellipse id="XMLID_122_" class="st4" cx="-144.5" cy="824" rx="16.3" ry="15.9"/>
		<ellipse id="XMLID_121_" class="st4" cx="-104.4" cy="824" rx="16.3" ry="15.9"/>
		<ellipse id="XMLID_3697_" class="st5" cx="-144.5" cy="824" rx="10.8" ry="10.5"/>
		<ellipse id="XMLID_3696_" class="st5" cx="-104.4" cy="824" rx="10.8" ry="10.5"/>
		<path id="XMLID_3695_" class="st3" d="M-124.6,811.1c4.6-0.1,8.6,3.4,8.5,8c0,4.6-3.3,8.3-8.4,8.4c-4.9,0.1-8.3-3.6-8.4-7.8
			C-133.1,814.6-129.1,810.9-124.6,811.1z"/>
		<path id="XMLID_3694_" class="st5" d="M-124.5,815.1c2.4-0.1,4.4,1.8,4.4,4.1c0,2.4-1.7,4.3-4.3,4.4c-2.5,0-4.3-1.9-4.4-4
			C-128.9,816.9-126.8,815-124.5,815.1z"/>
		<path id="XMLID_34_" class="st3" d="M-141.4,828.8c-5.2,0-9.4-4.1-9.4-9.2c0-0.1,0-0.3,0-0.4c-1,1.3-1.6,2.9-1.6,4.7
			c0,4.3,3.6,7.8,8,7.8c2.8,0,5.3-1.5,6.8-3.6C-138.9,828.6-140.1,828.8-141.4,828.8z"/>
		<path id="XMLID_33_" class="st3" d="M-101.3,828.8c-5.2,0-9.4-4.1-9.4-9.2c0-0.1,0-0.3,0-0.4c-1,1.3-1.6,2.9-1.6,4.7
			c0,4.3,3.6,7.8,8,7.8c2.8,0,5.3-1.5,6.8-3.6C-98.8,828.6-100,828.8-101.3,828.8z"/>
	</g>
</g>
<g id="Capa_3" class="st0">
	<rect x="-285" y="798.3" class="st6" width="302" height="44"/>
</g>
<g>
	<g>
		<polygon class="st7" points="97.5,16.3 103.5,16.3 108.1,23.2 102,23.2 		"/>
		<polygon points="97.5,30.1 103.5,30.1 108.1,23.2 102,23.2 		"/>
		<polygon class="st7" points="106.8,16.3 112.9,16.3 117.4,23.2 111.4,23.2 		"/>
		<polygon points="106.8,30.1 112.9,30.1 117.4,23.2 111.4,23.2 		"/>
	</g>
	<g>
		<path d="M110.7,65.1l-4.7-7h-3.8v7h-4.8V43.4h9.9c5.1,0,8.2,2.7,8.2,7.2v0.1c0,3.5-1.9,5.7-4.7,6.7l5.3,7.8L110.7,65.1L110.7,65.1
			z M110.8,50.8c0-2-1.4-3.1-3.8-3.1h-4.7v6.2h4.8C109.4,53.9,110.8,52.6,110.8,50.8L110.8,50.8z"/>
		<path d="M120.2,65.1V43.4h4.8v21.7C125,65.1,120.2,65.1,120.2,65.1z M120.6,41.6l3.5-5.5l4.1,1.8l-4,3.7H120.6z"/>
		<path d="M140.9,65.4c-6.7,0-11.5-5-11.5-11.2v-0.1c0-6.2,4.9-11.2,11.6-11.2s11.5,5,11.5,11.2v0.1
			C152.5,60.4,147.6,65.4,140.9,65.4z M147.5,54.2c0-3.7-2.7-6.8-6.6-6.8c-3.9,0-6.5,3-6.5,6.8v0.1c0,3.7,2.7,6.8,6.6,6.8
			C144.8,61,147.5,58,147.5,54.2L147.5,54.2z"/>
		<path d="M176.3,65.4c-6.4,0-11.1-4.9-11.1-11.2v-0.1c0-6.2,4.7-11.2,11.3-11.2c4.1,0,6.6,1.4,8.6,3.4l-3,3.5
			c-1.7-1.5-3.4-2.5-5.6-2.5c-3.7,0-6.3,3-6.3,6.8v0.1c0,3.7,2.6,6.8,6.3,6.8c2.5,0,4-1,5.7-2.5l3,3.1
			C182.9,63.9,180.5,65.4,176.3,65.4z"/>
		<path d="M198.1,65.4c-5.8,0-9.4-3.3-9.4-9.7V43.3h4.8v12.3c0,3.5,1.8,5.4,4.7,5.4s4.7-1.8,4.7-5.2V43.4h4.8v12.3
			C207.6,62.2,203.9,65.4,198.1,65.4z"/>
		<path d="M227.9,65.1l-2-4.9h-9.2l-2,4.9h-4.9l9.3-21.9h4.4l9.3,21.9H227.9z M221.3,48.9l-2.9,7h5.8L221.3,48.9z"/>
		<path d="M249.4,65.1l-4.7-7H241v7h-4.8V43.4h9.9c5.1,0,8.2,2.7,8.2,7.2v0.1c0,3.5-1.9,5.7-4.7,6.7l5.3,7.8L249.4,65.1L249.4,65.1z
			 M249.5,50.8c0-2-1.4-3.1-3.8-3.1H241v6.2h4.8C248.2,53.9,249.5,52.6,249.5,50.8L249.5,50.8z"/>
		<path d="M268.5,47.7V65h-4.8V47.7h-6.6v-4.4h18v4.4H268.5z"/>
		<path d="M288.4,65.4c-6.7,0-11.5-5-11.5-11.2v-0.1c0-6.2,4.9-11.2,11.6-11.2s11.5,5,11.5,11.2v0.1C300,60.4,295.1,65.4,288.4,65.4
			z M295,54.2c0-3.7-2.7-6.8-6.6-6.8s-6.5,3-6.5,6.8v0.1c0,3.7,2.7,6.8,6.6,6.8C292.3,61,295,58,295,54.2L295,54.2z"/>
	</g>
	<g>
		<path d="M129.3,31c-4.7,0-7.8-3.4-7.8-7.8c0-4.2,3.2-7.8,7.8-7.8c2.6,0,4.2,0.7,5.8,2l-1.7,2c-1.2-1-2.3-1.6-4.2-1.6
			c-2.8,0-4.9,2.4-4.9,5.3c0,3.1,2,5.4,5.1,5.4c1.4,0,2.7-0.5,3.6-1.1v-2.8h-3.8v-2.3h6.4v6.3C134.1,29.9,131.9,31,129.3,31z"/>
		<path d="M148.2,31c-4.6,0-7.8-3.5-7.8-7.8s3.3-7.8,7.9-7.8c4.6,0,7.8,3.5,7.8,7.8C156.1,27.4,152.8,31,148.2,31z M148.2,17.9
			c-3,0-5.1,2.4-5.1,5.3s2.1,5.4,5.1,5.4s5.1-2.4,5.1-5.3S151.2,17.9,148.2,17.9z"/>
		<path d="M172.9,19.5c0,1.8-1,2.8-2.1,3.4c1.8,0.6,3,1.6,3,3.7c0,2.7-2.2,4.1-5.6,4.1h-7v-15h6.7C171,15.7,172.9,17.2,172.9,19.5z
			 M170.3,20c0-1.2-0.9-1.9-2.6-1.9h-3.8v4h3.6C169.2,22,170.3,21.4,170.3,20z M171.1,26.3c0-1.3-1-2-3.1-2h-4.2v4.1h4.4
			C170.1,28.4,171.1,27.7,171.1,26.3z"/>
		<path d="M181.6,15.7v15H179v-15C179,15.7,181.6,15.7,181.6,15.7z"/>
		<path d="M198.8,18.1h-8.5V22h7.5v2.4h-7.5v4h8.6v2.4h-11.3v-15h11.1L198.8,18.1L198.8,18.1L198.8,18.1z"/>
		<path d="M213.7,30.7l-3.7-5.2h-3.3v5.2H204v-15h6.7c3.5,0,5.6,1.8,5.6,4.8c0,2.5-1.5,4-3.6,4.6l4.1,5.7L213.7,30.7L213.7,30.7z
			 M210.5,18.1h-3.8v5h3.9c1.9,0,3.1-1,3.1-2.5C213.6,19,212.5,18.1,210.5,18.1z"/>
		<path d="M232,15.7h2.6v15h-2.2L224.1,20v10.7h-2.6v-15h2.4l8.1,10.4V15.7z"/>
		<path d="M247.7,31c-4.6,0-7.8-3.5-7.8-7.8s3.3-7.8,7.9-7.8c4.6,0,7.8,3.5,7.8,7.8C255.6,27.4,252.3,31,247.7,31z M247.7,17.9
			c-3,0-5.1,2.4-5.1,5.3s2.1,5.4,5.1,5.4s5.1-2.4,5.1-5.3S250.7,17.9,247.7,17.9z"/>
		<path d="M274.9,30.7h-5.6v-15h5.6c4.7,0,8,3.2,8,7.5C282.8,27.4,279.6,30.7,274.9,30.7z M274.9,18.1h-3v10.2h3
			c3.2,0,5.2-2.1,5.2-5.1C280.1,20.3,278,18.1,274.9,18.1z"/>
		<path d="M299.2,18.1h-8.5V22h7.5v2.4h-7.5v4h8.6v2.4h-11.2v-15h11.1C299.2,15.8,299.2,18.1,299.2,18.1z"/>
	</g>
	<g>
		<path id="XMLID_114_" d="M40,80C17.9,80,0,62.1,0,40S17.9,0,40,0s40,17.9,40,40C80,62,62.1,80,40,80z M40,3.7
			C20,3.7,3.8,20,3.8,39.9c0,20,16.3,36.2,36.2,36.2c20,0,36.2-16.3,36.2-36.2S60,3.7,40,3.7z"/>
		<path id="XMLID_113_" d="M14,69.8c0,0,11-12.5,38.8-5.8c0,0,21.5,4.1,33.6-2.9c0,0-13.5,13.4-40.2,6.3C46.2,67.3,30.9,63,14,69.8z
			"/>
		<path id="XMLID_106_" d="M18.8,39.2v18.7h-1.3h-0.2v2.6h-1.7v3.9h2.5c5.4-3.2,16.4-7.2,34.7-2.7c0,0,5.1,1,11.7,1.2v-2.3h-1.7V58
			h-0.2h-1.3V39.3h4.1l0.8-2.2L47.4,26.6v-6.2l-1.1-0.7V16h1.1v-1.7h-1.1v-0.9c0-2.6-2.5-5.5-5.9-5.7V4.6h-0.1h-0.1H40l0,0l0,0h-0.2
			h-0.1h-0.1v3.1c-3.3,0.2-5.9,3.1-5.9,5.7v0.9h-1.1V16h1.1v3.7l-1.1,0.7v6.2L13.8,37.1l0.8,2.2L18.8,39.2L18.8,39.2L18.8,39.2z
			 M50.9,39.2h5.5v18.7h-5.5V39.2z M42.9,13.1c2.3,0,2.2,2.2,2.2,2.2v4.4h-4.2v-4.4C40.9,15.3,40.7,13.1,42.9,13.1z M37.1,13.1
			c2.2,0,2,2.2,2,2.2v4.4h-4.2v-4.4C34.9,15.3,34.8,13.1,37.1,13.1z M33.8,39.2H40h6.2v18.7H40l0,0l0,0h-6.2V39.2z M23.6,39.2h5.5
			v18.7h-5.5V39.2z"/>
	</g>
</g>
</svg>
